<svg xmlns="http://www.w3.org/2000/svg" width="80.001" height="80" viewBox="0 0 80.001 80">
  <g id="sing_18172727" transform="translate(-3.999 -4)">
    <path id="パス_226" data-name="パス 226" d="M14.239,46.718l-2.178,1.858A2.994,2.994,0,0,1,8,48.416L4.873,45.288a2.981,2.981,0,0,1-.152-4.052L6.6,39.054A1,1,0,0,1,8.063,39L14.3,45.25a1,1,0,0,1-.058,1.466Z" transform="translate(0 34.707)" fill="#149eff"/>
    <path id="パス_227" data-name="パス 227" d="M55.236,32,40.6,17.364a2,2,0,0,0-2.926.106L7.6,52.2a4,4,0,0,0,.2,5.446L14.955,64.8A4,4,0,0,0,20.4,65L55.13,34.928A2,2,0,0,0,55.236,32ZM40.2,35.222,37.376,38.05a2,2,0,0,1-2.828-2.828l2.828-2.828A2,2,0,0,1,40.2,35.222Z" transform="translate(2.625 12.779)" fill="#149eff"/>
    <path id="パス_228" data-name="パス 228" d="M60.5,12.79a19.965,19.965,0,0,0-36.454,9.69,5.932,5.932,0,0,0,1.76,4.608L40.9,42.221a5.891,5.891,0,0,0,4.588,1.764A20.009,20.009,0,0,0,60.5,12.79ZM33.059,20.784a2,2,0,1,1,0-2.832A2,2,0,0,1,33.059,20.784Zm5.652,5.666a2,2,0,1,1,0-2.832A2,2,0,0,1,38.711,26.45Zm0-11.332a2,2,0,1,1,0-2.832A2,2,0,0,1,38.711,15.118Zm5.65,17a2,2,0,1,1,0-2.832A2,2,0,0,1,44.361,32.115Zm0-11.33a2,2,0,1,1,0-2.832A2,2,0,0,1,44.361,20.784Zm5.652,17a2,2,0,1,1,0-2.832A2,2,0,0,1,50.013,37.781Zm0-11.33a2,2,0,1,1,0-2.832A2,2,0,0,1,50.013,26.45Zm0-11.332a2,2,0,1,1,0-2.832A2,2,0,0,1,50.013,15.118Zm5.65,17a2,2,0,1,1,0-2.832A2,2,0,0,1,55.663,32.115Zm0-11.33a2,2,0,1,1,0-2.832A2,2,0,0,1,55.663,20.784Z" transform="translate(20.032 0)" fill="#149eff"/>
    <path id="パス_229" data-name="パス 229" d="M47.662,37.234a2,2,0,0,1-2.758.56l-2.9-1.92v12.18c0,2.18-2.22,4.28-5.238,4.82-3.278.58-6.3-.9-6.718-3.28-.42-2.4,1.92-4.8,5.2-5.38a7.515,7.515,0,0,1,2.758,0V33.994a2.984,2.984,0,0,1,1.58-2.64,3.032,3.032,0,0,1,3.078.14l4.438,2.96a2,2,0,0,1,.56,2.78Z" transform="translate(26.002 27.001)" fill="#149eff"/>
    <path id="パス_230" data-name="パス 230" d="M24.662,14.234a2,2,0,0,1-2.758.56l-2.9-1.92v12.18c0,2.18-2.22,4.28-5.238,4.82-3.278.58-6.3-.9-6.718-3.28-.42-2.4,1.92-4.8,5.2-5.38a7.516,7.516,0,0,1,2.758,0V10.994a2.984,2.984,0,0,1,1.58-2.64,3.032,3.032,0,0,1,3.078.14l4.438,2.96A2,2,0,0,1,24.662,14.234Z" transform="translate(3.001 4.001)" fill="#149eff"/>
  </g>
</svg>
